<?xml version="1.0" encoding="utf-8"?>
<!-- Generator: Adobe Illustrator 18.1.1, SVG Export Plug-In . SVG Version: 6.00 Build 0)  -->
<svg version="1.1" id="Layer_1" xmlns="http://www.w3.org/2000/svg" xmlns:xlink="http://www.w3.org/1999/xlink" x="0px" y="0px"
	 viewBox="0 0 55.6 30" style="enable-background:new 0 0 55.6 30;" xml:space="preserve">
<style type="text/css">
	.st0{fill:#231F20;}
	.st1{fill:#FFFFFF;}
	.st2{fill:#0361AA;}
</style>
<rect x="0" y="0" class="st0" width="55.6" height="30"/>
<rect x="4.2" y="3.6" class="st1" width="7.2" height="22"/>
<g>
	<path class="st1" d="M21.3,20.3v-3.4H30c0.2,1.2,0.4,2.4,0.8,3.4H21.3z M21.3,8.9H31c-0.4,0.9-0.7,1.9-0.9,2.9h-8.8V8.9z
		 M42.1,13.7v4.7h3.2c-0.3,1.6-1.9,2.7-4,2.7c-2.9,0-4.3-2-4.3-5.9c0-4.3,1.4-6.5,4.2-6.5c1.8,0,3,0.9,3.6,2.7h6.7
		c-0.6-5.1-4.3-8.2-10.1-8.2c-4.4,0-7.7,1.5-9.6,4.4V3.7H14.2v22h18v-2.9c1.8,2.3,4.4,3.5,7.8,3.5c3,0,5.2-0.8,6.8-2.5l0.3,1.9h4.6
		V13.7H42.1z"/>
	<path class="st2" d="M8.3,14.4c0,0-0.4,0.2,0,0.4c0,0,0.9,0.2,1.7-0.6c0.6-0.6,1.3-1.6,0.4-4.2c-0.9-2.5-2.4-6-2.4-6L5.2,9.4
		c0,0-1.6,3.3,0.7,4.6c0,0,1.3,0.6,2.4-0.2c0,0,0.7-0.4,0.6-1.7c0,0-0.6,1.8-2.4,1.2c0,0-1.2-0.6-0.5-2.7c0,0,0.4-1.2,1.8-3.4
		c0,0,1.2,2.3,1.7,4.2C9.5,11.5,10.2,13.6,8.3,14.4"/>
</g>
</svg>
